<svg width="32" height="32" xmlns="http://www.w3.org/2000/svg" version="1.1">

 <g>
  <title>Layer 1</title>
  <g id="surface1">
   <path id="svg_1" fill="rgb(88.235295%,94.117647%,74.117649%)" fill-rule="nonzero" d="m22.42114,0.27536c0.17031,0.00708 0.17031,0.00708 0.34772,0.00708c2.76039,0.06387 4.93179,0.29095 7.04645,2.29205c1.62501,1.71017 1.994,3.54807 1.98691,5.83301c0,0.18449 0,0.3619 0,0.5464c0,0.48963 0,0.97926 0,1.46891c0,0.51092 0,1.02893 0,1.53985c0,0.86572 0,1.73146 0,2.59718c0,0.99345 0,1.98691 0,2.98746c0,0.85864 0,1.71726 0,2.56879c0,0.51802 0,1.02894 0,1.53986c0,0.47544 0,0.95797 0,1.44051c0,0.17739 0,0.3477 0,0.52511c0.00708,1.38374 -0.02129,2.70362 -0.71672,3.93124c-0.04256,0.08516 -0.09225,0.16322 -0.13481,0.24837c-0.72381,1.2631 -1.68888,2.12174 -2.92361,2.85974c-0.07806,0 -0.14902,0 -0.22708,0c-0.03548,0.07806 -0.07806,0.14902 -0.11354,0.22708c-2.11464,1.02894 -4.83955,0.71671 -7.13159,0.70962c-0.46125,0 -0.92959,0 -1.39793,0c-0.78058,0 -1.56824,0 -2.34882,0c-0.9012,0 -1.80242,0 -2.70362,0c-0.78058,0 -1.55405,0 -2.33463,0c-0.46124,0 -0.92959,0 -1.39083,0c-0.43286,0 -0.86574,0 -1.30569,0c-0.15612,0 -0.31224,0 -0.47544,0c-1.38374,0.00708 -2.71072,-0.07097 -3.98093,-0.66704c-0.08514,-0.04258 -0.17739,-0.07806 -0.26255,-0.12064c-1.13538,-0.5393 -2.39848,-1.43341 -2.91651,-2.61846c-0.03548,-0.08516 -0.06385,-0.17031 -0.09225,-0.25547c-0.07806,0 -0.14902,0 -0.22708,0c-1.0928,-2.34882 -0.92249,-4.81117 -0.92249,-7.34448c0,-0.40447 0,-0.81606 0,-1.22052c0,-0.68833 0,-1.36956 0,-2.05078c0,-0.78766 0,-1.56824 0,-2.3559c0,-0.68123 0,-1.35537 0,-2.0366c0,-0.40447 0,-0.80895 0,-1.21344c0,-1.44051 0,-2.88101 0.05677,-4.32152c0.00708,-0.09225 0.01419,-0.18451 0.01419,-0.28384c0.09225,-1.86629 0.9083,-3.50549 2.21399,-4.83246c0.78058,-0.68123 1.61082,-1.11409 2.57589,-1.47599c0.08514,-0.03548 0.17741,-0.06387 0.26255,-0.09935c0.98636,-0.3477 1.99402,-0.36899 3.03004,-0.38318c0.15612,0 0.15612,0 0.31222,0c0.34061,-0.0071 0.68123,-0.0071 1.02184,-0.01421c0.24837,0 0.48965,0 0.73091,-0.00708c0.63865,-0.0071 1.28439,-0.01421 1.93014,-0.01421c0.39738,-0.00708 0.79476,-0.01419 1.19215,-0.01419c2.95907,-0.02838 5.92526,-0.05677 8.88433,0.0071zm0,0"/>
   <path id="svg_2" fill="rgb(8.627451%,9.019608%,8.235294%)" fill-rule="nonzero" d="m10.88286,8.18043c3.44872,0 6.89743,0 10.44548,0c0,0.9012 0,1.79532 0,2.72491c-2.43396,0 -4.86794,0 -7.37996,0c0,1.19925 0,2.39848 0,3.63321c2.10045,0 4.1938,0 6.35812,0c0,0.9012 0,1.79532 0,2.72491c-2.10045,0 -4.1938,0 -6.35812,0c0,1.95143 0,3.89577 0,5.90397c-1.01474,0 -2.02239,0 -3.06552,0c0,-4.946 0,-9.89198 0,-14.987zm0,0"/>
  </g>
 </g>
</svg>